<svg width="1491" height="373" viewBox="0 0 1491 373" fill="none" xmlns="http://www.w3.org/2000/svg">
<g clip-path="url(#clip0_7_10)">
<path d="M100.23 277.079L36.8114 213.524C-41.831 134.761 13.855 0 125.059 0H278.262V96.2581H55.6138L168.138 209.024L100.23 277.079Z" fill="white"/>
<path d="M225.769 95.9214L289.188 159.476C367.83 238.239 312.144 373 200.94 373H47.7373V276.742H270.385L157.861 163.976L225.769 95.9214Z" fill="white"/>
</g>
<path d="M587.439 138.703H549.44C546.886 112.2 530.601 98.7884 499.946 98.7884C486.216 98.7884 475.678 101.662 468.014 107.41C460.351 113.158 456.519 120.821 456.519 130.401C456.519 139.661 459.074 146.047 464.821 149.24C470.569 152.753 483.022 156.904 502.501 161.694C507.61 163.29 511.442 164.248 514.315 164.887C539.541 171.273 556.784 177.021 566.045 182.13C586.162 192.987 596.38 209.911 596.38 232.901C596.38 243.12 594.464 252.06 591.271 260.043C587.758 268.346 583.288 275.051 577.54 280.48C571.792 285.908 564.767 290.378 557.104 293.891C549.121 297.723 540.819 300.277 532.516 301.874C523.895 303.47 514.954 304.109 506.013 304.109C477.275 304.109 454.284 297.403 436.721 283.673C418.84 270.261 410.218 250.145 410.218 223.641H449.494C449.494 240.246 454.922 252.699 465.779 260.682C476.636 268.665 490.686 272.497 508.248 272.497C523.576 272.497 535.39 269.623 544.012 263.237C552.633 256.85 557.104 248.229 557.104 236.733C557.104 229.708 554.549 223.641 550.079 219.171C545.608 214.7 540.499 211.188 535.39 209.272C529.962 207.356 520.702 204.802 507.61 201.289C506.013 200.97 504.736 200.65 504.097 200.331C475.678 193.306 457.158 187.239 448.217 182.449C429.696 172.87 419.798 158.181 418.52 138.064V133.594C418.52 113.477 425.865 97.5112 441.192 85.3771C456.519 73.2431 476.955 67.1761 502.501 67.1761C527.088 67.1761 547.205 73.2431 562.852 84.7385C578.179 96.5532 586.481 114.435 587.439 138.703ZM640.266 71.6465V156.904C652.4 139.022 669.643 130.081 692.314 130.081C710.196 130.081 723.927 135.191 734.145 144.77C744.044 154.35 749.153 168.719 749.153 187.239V299H712.431V199.054C712.431 186.601 710.196 177.021 705.726 170.315C701.255 163.929 692.953 160.417 680.5 160.417C666.45 160.417 656.232 165.206 649.845 174.147C643.459 183.407 640.266 195.541 640.266 210.549V299H604.183V71.6465H640.266ZM763.273 185.004C767.104 147.963 791.053 129.124 835.438 129.124C855.874 129.124 872.479 133.275 884.613 141.258C896.747 149.56 903.133 162.013 903.133 178.937V262.598C903.133 267.388 903.453 270.581 904.73 272.177C906.007 274.093 908.242 274.732 911.755 274.732C914.309 274.732 916.864 274.732 920.057 274.093V299.639C910.478 302.193 902.814 303.151 896.428 303.151C880.781 303.151 871.84 296.765 869.605 283.353C855.555 296.765 836.396 303.151 811.809 303.151C794.566 303.151 781.154 299 771.256 290.059C761.037 281.118 756.248 269.304 756.248 253.976C756.248 249.506 756.567 245.035 757.844 240.884C758.802 237.053 760.079 233.54 761.357 230.347C762.634 227.473 764.869 224.599 768.062 222.045C771.256 219.49 773.81 217.574 775.726 215.658C777.642 214.062 781.154 212.465 785.625 210.869C790.095 209.591 793.608 208.314 795.843 207.675C798.078 207.037 801.91 206.079 807.658 205.121C813.086 204.482 816.599 203.844 818.514 203.524C820.43 203.205 824.262 202.566 830.01 201.928C842.782 200.331 851.723 199.054 856.513 197.777C860.984 196.499 864.177 194.903 866.093 192.348C867.37 190.752 868.328 186.92 868.328 180.534C868.328 163.929 856.832 155.627 834.48 155.627C822.346 155.627 813.725 157.862 808.296 162.332C802.549 166.803 799.036 174.466 797.759 185.004H763.273ZM868.008 216.297C865.135 217.894 861.941 219.171 858.429 220.448C854.597 221.725 851.723 222.364 849.488 222.683C847.253 223.003 843.74 223.322 838.951 223.961C834.161 224.599 830.968 225.238 829.69 225.238C825.22 225.876 821.708 226.515 819.153 227.154C816.599 227.792 813.405 228.431 809.574 229.708C805.742 230.986 802.868 232.582 800.952 234.498C799.036 236.414 797.12 238.649 795.843 241.842C794.246 245.035 793.608 248.548 793.608 252.699C793.608 260.682 796.162 266.749 801.271 270.9C806.38 275.371 813.725 277.286 823.304 277.286C839.27 277.286 851.723 273.135 860.664 264.194C865.454 259.405 868.008 249.825 868.008 235.775V216.297ZM959.545 71.6465V156.904C971.679 139.022 988.922 130.081 1011.59 130.081C1029.48 130.081 1043.21 135.191 1053.42 144.77C1063.32 154.35 1068.43 168.719 1068.43 187.239V299H1031.71V199.054C1031.71 186.601 1029.48 177.021 1025.01 170.315C1020.53 163.929 1012.23 160.417 999.779 160.417C985.729 160.417 975.511 165.206 969.125 174.147C962.738 183.407 959.545 195.541 959.545 210.549V299H923.462V71.6465H959.545ZM1228.48 247.59C1224.33 265.472 1215.39 279.522 1201.98 289.42C1188.56 299.639 1172.28 304.428 1153.76 304.428C1128.85 304.428 1109.06 296.445 1094.37 280.48C1079.68 264.514 1072.65 243.758 1072.65 218.532C1072.65 192.987 1080 171.593 1095.01 154.669C1110.01 138.064 1129.17 129.443 1152.48 129.443C1176.43 129.443 1195.59 137.745 1209.64 154.35C1223.69 170.954 1230.71 193.306 1230.71 221.725V225.557H1109.06C1109.37 242.162 1113.53 255.254 1121.51 264.194C1129.17 273.135 1140.35 277.606 1154.4 277.606C1164.3 277.606 1172.28 275.371 1178.67 270.581C1185.05 265.791 1189.84 258.127 1193.67 247.59H1228.48ZM1194.31 201.289C1193.04 187.558 1188.88 176.702 1181.22 168.719C1173.56 160.736 1163.98 156.585 1152.16 156.585C1140.03 156.585 1130.45 160.417 1123.11 168.08C1115.76 175.744 1111.29 186.92 1109.69 201.289H1194.31ZM1386.75 247.59C1382.6 265.472 1373.66 279.522 1360.25 289.42C1346.84 299.639 1330.55 304.428 1312.03 304.428C1287.13 304.428 1267.33 296.445 1252.64 280.48C1237.95 264.514 1230.93 243.758 1230.93 218.532C1230.93 192.987 1238.27 171.593 1253.28 154.669C1268.29 138.064 1287.45 129.443 1310.76 129.443C1334.7 129.443 1353.86 137.745 1367.91 154.35C1381.96 170.954 1388.99 193.306 1388.99 221.725V225.557H1267.33C1267.65 242.162 1271.8 255.254 1279.78 264.194C1287.45 273.135 1298.62 277.606 1312.67 277.606C1322.57 277.606 1330.55 275.371 1336.94 270.581C1343.33 265.791 1348.12 258.127 1351.95 247.59H1386.75ZM1352.59 201.289C1351.31 187.558 1347.16 176.702 1339.49 168.719C1331.83 160.736 1322.25 156.585 1310.44 156.585C1298.3 156.585 1288.72 160.417 1281.38 168.08C1274.03 175.744 1269.56 186.92 1267.97 201.289H1352.59ZM1490.74 131.039V165.845C1484.36 165.206 1479.89 164.887 1477.97 164.887C1446.04 164.887 1430.39 185.643 1430.39 226.515V299H1394.31V134.233H1428.48V167.122C1439.97 142.854 1458.49 130.401 1483.72 130.401L1490.74 131.039Z" fill="white"/>
<defs>
<clipPath id="clip0_7_10">
<rect width="326" height="373" fill="white"/>
</clipPath>
</defs>
</svg>
